<svg width="1922" height="879" viewBox="0 0 1922 879" fill="none" xmlns="http://www.w3.org/2000/svg">
<path d="M342.117 218.166L306.662 245.925C300.997 250.315 297.84 257.212 297.997 264.357L298.209 274.061C298.368 281.313 304.361 287.052 311.613 286.895C314.173 286.84 316.716 286.038 318.816 284.499L362.742 253.783C364.844 252.351 367.385 251.442 369.944 251.387L371.011 251.364C377.623 251.221 383.18 256.543 383.325 263.154C383.395 266.354 382.183 269.474 379.993 271.762L359.235 293.442C353.185 299.761 345.716 304.617 337.458 307.569L309.403 317.564C303.262 319.723 299.336 325.57 299.478 332.075C299.565 336.021 298.049 339.894 295.339 342.833L276.668 362.335C269.992 369.307 266.46 378.559 266.67 388.157L266.771 392.742C267.153 410.232 281.967 424.102 299.35 423.727C311.08 423.473 321.813 416.627 326.81 406.063L330.887 397.333C333.334 392.159 338.594 388.738 344.353 388.613C349.152 388.51 353.68 390.652 356.643 394.429L374.532 417.195C376.84 420.24 380.503 421.868 384.342 421.785C393.3 421.591 398.958 411.973 394.73 404.063L393.503 401.635C389.608 394.251 393.142 385.106 401.082 382.267L423.524 374.207C431.571 371.366 436.844 363.677 436.657 355.146C436.417 344.161 445.075 335.119 456.059 334.882L487.305 334.207C496.69 334.004 504.536 341.517 504.742 350.901C504.947 360.286 497.437 368.13 488.052 368.333L465.977 368.809C458.299 368.975 450.901 372.229 445.581 377.785L440.679 382.906C438.488 385.193 437.276 388.314 437.346 391.513C437.491 398.125 443.049 403.446 449.661 403.303L461.711 403.043C468.11 402.905 474.351 405.331 478.928 409.713L486.012 416.495C487.973 418.373 489.098 421.016 489.156 423.682C489.215 426.348 488.207 429.037 486.329 430.998L478.506 439.169C474.755 443.305 472.737 448.576 472.856 454.015C472.975 459.454 475.222 464.633 479.254 468.494L499.197 487.588C510.312 498.23 525.271 504.096 540.734 503.762L548.626 503.591C555.086 481.9 558.317 458.891 557.797 435.11C555.198 316.31 459.655 221.283 342.117 218.166ZM532.728 542.557C528.721 539.87 523.887 538.374 518.768 538.484C512.37 538.623 506.128 536.197 501.551 531.814L487.053 517.724C478.662 509.69 467.577 505.341 455.953 505.592C445.609 505.816 435.396 502.302 427.357 495.754L398.565 472.05C385.963 461.759 370.052 456.235 353.735 456.587L331.447 457.069C318.01 457.359 304.873 461.59 293.839 469.297L265.045 489.443C246.341 502.544 235.396 524.119 235.896 546.94L235.97 550.353C236.367 568.482 243.892 585.71 256.97 598.231L274.406 614.925C283.669 623.794 296.045 628.648 308.842 628.372L331.557 627.881C345.74 627.575 357.401 638.739 357.711 652.923C357.77 655.589 358.254 658.246 359.055 660.682C434.956 652.855 499.246 606.869 532.728 542.557ZM62.9732 445.795C61.389 373.39 88.6328 303.329 138.711 251.025C188.79 198.721 257.6 168.459 330.006 166.895C402.412 165.332 472.481 192.595 524.8 242.688C577.119 292.781 607.401 361.599 608.985 434.004C610.57 506.41 583.326 576.471 533.248 628.774C483.169 681.078 414.358 711.341 341.953 712.904C269.547 714.468 199.477 687.204 147.159 637.112C94.8398 587.019 64.5575 518.201 62.9732 445.795ZM259.092 275.866C252.335 269.397 241.458 269.632 234.991 276.387L201.612 311.249C195.144 318.004 195.382 328.881 202.139 335.35C208.895 341.819 219.773 341.585 226.24 334.83L259.619 299.968C266.087 293.213 265.849 282.335 259.092 275.866Z" fill="#00E794"/>
<path d="M721.969 580V270.182H855.699C878.693 270.182 898.813 274.72 916.059 283.797C933.305 292.874 946.718 305.631 956.299 322.07C965.88 338.509 970.67 357.722 970.67 379.707C970.67 401.895 965.729 421.107 955.845 437.344C946.063 453.582 932.296 466.087 914.546 474.862C896.897 483.636 876.273 488.023 852.673 488.023H772.798V422.67H835.73C845.614 422.67 854.035 420.956 860.994 417.527C868.053 413.997 873.449 409.005 877.18 402.55C881.013 396.096 882.929 388.482 882.929 379.707C882.929 370.832 881.013 363.268 877.18 357.016C873.449 350.662 868.053 345.821 860.994 342.493C854.035 339.064 845.614 337.349 835.73 337.349H806.08V580H721.969Z" fill="#C6C6C6"/>
<path d="M1097.68 270.182V580H1014.18V270.182H1097.68Z" fill="#00E794"/>
<path d="M1310.85 478.341V347.636H1394.36V580H1315.09V535.827H1312.67C1307.63 550.652 1298.8 562.25 1286.19 570.621C1273.59 578.891 1258.61 583.026 1241.26 583.026C1225.03 583.026 1210.81 579.294 1198.6 571.831C1186.5 564.368 1177.07 554.081 1170.31 540.97C1163.66 527.859 1160.28 512.832 1160.18 495.889V347.636H1243.68V478.341C1243.79 489.838 1246.71 498.864 1252.46 505.42C1258.31 511.975 1266.48 515.253 1276.97 515.253C1283.92 515.253 1289.93 513.79 1294.97 510.866C1300.11 507.84 1304.04 503.604 1306.77 498.158C1309.59 492.612 1310.95 486.006 1310.85 478.341Z" fill="#C6C6C6"/>
<path d="M1570.75 347.636V408.148H1417.66V347.636H1570.75ZM1447.31 291.966H1530.81V505.268C1530.81 508.496 1531.37 511.219 1532.48 513.438C1533.59 515.555 1535.3 517.169 1537.62 518.278C1539.94 519.287 1542.91 519.791 1546.55 519.791C1549.07 519.791 1551.99 519.489 1555.32 518.884C1558.75 518.278 1561.27 517.774 1562.88 517.371L1574.99 576.067C1571.25 577.176 1565.91 578.538 1558.95 580.151C1552.09 581.765 1543.92 582.824 1534.44 583.328C1515.28 584.337 1499.2 582.37 1486.19 577.428C1473.18 572.386 1463.39 564.469 1456.84 553.678C1450.28 542.886 1447.11 529.372 1447.31 513.135V291.966Z" fill="#C6C6C6"/>
<path d="M1721.12 578.236C1695.91 578.236 1674.33 573.244 1656.38 563.259C1638.43 553.174 1624.66 539.156 1615.08 521.204C1605.5 503.151 1600.71 482.224 1600.71 458.423C1600.71 434.622 1605.5 413.746 1615.08 395.794C1624.66 377.741 1638.43 363.723 1656.38 353.739C1674.33 343.653 1695.91 338.611 1721.12 338.611C1746.34 338.611 1767.92 343.653 1785.87 353.739C1803.82 363.723 1817.59 377.741 1827.17 395.794C1836.75 413.746 1841.54 434.622 1841.54 458.423C1841.54 482.224 1836.75 503.151 1827.17 521.204C1817.59 539.156 1803.82 553.174 1785.87 563.259C1767.92 573.244 1746.34 578.236 1721.12 578.236ZM1721.73 516.514C1728.79 516.514 1734.89 514.144 1740.03 509.404C1745.18 504.664 1749.16 497.907 1751.99 489.133C1754.81 480.359 1756.22 469.92 1756.22 457.818C1756.22 445.615 1754.81 435.177 1751.99 426.504C1749.16 417.729 1745.18 410.972 1740.03 406.232C1734.89 401.492 1728.79 399.122 1721.73 399.122C1714.27 399.122 1707.86 401.492 1702.52 406.232C1697.17 410.972 1693.09 417.729 1690.26 426.504C1687.44 435.177 1686.03 445.615 1686.03 457.818C1686.03 469.92 1687.44 480.359 1690.26 489.133C1693.09 497.907 1697.17 504.664 1702.52 509.404C1707.86 514.144 1714.27 516.514 1721.73 516.514Z" fill="#C6C6C6"/>
</svg>
