<svg width="27" height="27" viewBox="0 0 27 27" fill="none" xmlns="http://www.w3.org/2000/svg">
<path d="M26.9252 8.78726C27.1042 9.24614 26.9531 9.75776 26.5671 10.0848L24.1444 12.1629C24.206 12.6007 24.2396 13.049 24.2396 13.5026C24.2396 13.9562 24.206 14.4046 24.1444 14.8424L26.5671 16.9205C26.9531 17.2475 27.1042 17.7591 26.9252 18.218C26.679 18.8457 26.3824 19.447 26.0411 20.0272L25.7782 20.4544C25.4089 21.0346 24.9949 21.5831 24.5417 22.1C24.2116 22.4798 23.6633 22.6064 23.1709 22.4587L20.0545 21.5251C19.3048 22.0684 18.4767 22.522 17.5927 22.8648L16.8934 25.8765C16.7815 26.3565 16.3898 26.7363 15.8751 26.8154C15.103 26.9367 14.3085 27 13.4972 27C12.6859 27 11.8914 26.9367 11.1193 26.8154C10.6046 26.7363 10.2129 26.3565 10.101 25.8765L9.40168 22.8648C8.51767 22.522 7.68961 22.0684 6.93989 21.5251L3.82908 22.464C3.33672 22.6116 2.78841 22.4798 2.45831 22.1053C2.00511 21.5884 1.59109 21.0399 1.22182 20.4597L0.958854 20.0324C0.61756 19.4522 0.321026 18.8509 0.0748472 18.2233C-0.104192 17.7644 0.0468723 17.2528 0.432926 16.9258L2.85555 14.8476C2.79401 14.4046 2.76044 13.9562 2.76044 13.5026C2.76044 13.049 2.79401 12.6007 2.85555 12.1629L0.432926 10.0848C0.0468723 9.75776 -0.104192 9.24614 0.0748472 8.78726C0.321026 8.1596 0.61756 7.55831 0.958854 6.97812L1.22182 6.55089C1.59109 5.9707 2.00511 5.42215 2.45831 4.90525C2.78841 4.52549 3.33672 4.39891 3.82908 4.54659L6.94548 5.48017C7.69521 4.9369 8.52327 4.4833 9.40727 4.14046L10.1066 1.12874C10.2185 0.648759 10.6102 0.268998 11.1249 0.189881C11.897 0.0632936 12.6915 0 13.5028 0C14.3141 0 15.1086 0.0632936 15.8807 0.184606C16.3954 0.263723 16.7871 0.643485 16.899 1.12346L17.5983 4.13518C18.4823 4.47802 19.3104 4.93163 20.0601 5.4749L23.1765 4.54132C23.6689 4.39363 24.2172 4.52549 24.5473 4.89998C25.0005 5.41688 25.4145 5.96542 25.7838 6.54561L26.0467 6.97285C26.388 7.55304 26.6846 8.15433 26.9307 8.78199L26.9252 8.78726ZM13.5028 17.7222C14.6899 17.7222 15.8284 17.2776 16.6678 16.4863C17.5072 15.695 17.9788 14.6217 17.9788 13.5026C17.9788 12.3835 17.5072 11.3103 16.6678 10.5189C15.8284 9.72762 14.6899 9.28306 13.5028 9.28306C12.3157 9.28306 11.1772 9.72762 10.3378 10.5189C9.49839 11.3103 9.02681 12.3835 9.02681 13.5026C9.02681 14.6217 9.49839 15.695 10.3378 16.4863C11.1772 17.2776 12.3157 17.7222 13.5028 17.7222Z" fill="#00E794"/>
</svg>
