<svg width="920" height="920" viewBox="0 0 920 920" fill="none" xmlns="http://www.w3.org/2000/svg">
<path d="M469.981 94.2319L411.538 139.989C402.199 147.225 396.996 158.593 397.253 170.371L397.603 186.368C397.865 198.321 407.745 207.781 419.698 207.523C423.917 207.432 428.109 206.11 431.571 203.573L503.977 152.942C507.443 150.581 511.631 149.083 515.85 148.992L517.608 148.954C528.507 148.719 537.668 157.49 537.907 168.389C538.022 173.663 536.024 178.806 532.413 182.577L498.197 218.314C488.224 228.73 475.913 236.734 462.301 241.601L416.056 258.076C405.933 261.636 399.461 271.273 399.696 281.996C399.838 288.5 397.34 294.885 392.873 299.73L362.095 331.875C351.091 343.369 345.269 358.619 345.615 374.44L345.781 381.999C346.412 410.828 370.83 433.691 399.484 433.073C418.82 432.655 436.512 421.369 444.749 403.956L451.469 389.565C455.503 381.036 464.173 375.397 473.666 375.192C481.576 375.021 489.04 378.554 493.925 384.779L523.413 422.306C527.216 427.324 533.254 430.008 539.583 429.871C554.349 429.552 563.675 413.699 556.707 400.659L554.684 396.658C548.263 384.485 554.088 369.411 567.176 364.731L604.17 351.446C617.434 346.762 626.126 334.088 625.818 320.025C625.422 301.919 639.693 287.014 657.8 286.623L709.305 285.51C724.775 285.176 737.708 297.56 738.047 313.029C738.385 328.498 726.005 341.428 710.536 341.762L674.148 342.548C661.491 342.821 649.298 348.185 640.529 357.344L632.447 365.784C628.837 369.555 626.839 374.699 626.954 379.972C627.193 390.871 636.354 399.642 647.253 399.407L667.117 398.978C677.664 398.75 687.952 402.749 695.497 409.973L707.173 421.152C710.406 424.248 712.26 428.605 712.356 432.999C712.453 437.394 710.791 441.827 707.696 445.059L694.8 458.528C688.618 465.344 685.291 474.034 685.487 482.999C685.683 491.964 689.387 500.502 696.034 506.865L728.907 538.34C747.23 555.883 771.887 565.551 797.376 565L810.385 564.719C821.034 528.964 826.36 491.037 825.502 451.836C821.217 256.01 663.727 99.3691 469.981 94.2319ZM784.178 628.95C777.574 624.52 769.606 622.054 761.168 622.236C750.621 622.464 740.333 618.465 732.788 611.242L708.889 588.016C695.057 574.772 676.786 567.604 657.625 568.018C640.574 568.386 623.739 562.594 610.488 551.801L563.028 512.727C542.256 495.765 516.027 486.658 489.132 487.239L452.392 488.033C430.243 488.511 408.588 495.486 390.399 508.189L342.937 541.398C312.105 562.993 294.064 598.556 294.888 636.175L295.011 641.8C295.664 671.684 308.069 700.082 329.625 720.721L358.367 748.24C373.636 762.859 394.036 770.86 415.13 770.405L452.573 769.596C475.953 769.091 495.174 787.494 495.685 810.874C495.781 815.269 496.581 819.648 497.9 823.665C623.013 810.762 728.988 734.96 784.178 628.95ZM9.84616 469.45C7.2348 350.099 52.1428 234.612 134.691 148.396C217.239 62.179 330.665 12.2952 450.017 9.71786C569.369 7.14052 684.87 52.0808 771.111 134.652C857.352 217.224 907.269 330.663 909.88 450.014C912.491 569.365 867.583 684.852 785.035 771.069C702.487 857.285 589.061 907.169 469.709 909.746C350.357 912.324 234.856 867.383 148.615 784.812C62.3743 702.24 12.4575 588.801 9.84616 469.45ZM333.124 189.343C321.986 178.68 304.056 179.067 293.396 190.201L238.374 247.667C227.714 258.802 228.106 276.732 239.244 287.395C250.381 298.059 268.311 297.671 278.972 286.537L333.993 229.071C344.653 217.937 344.261 200.006 333.124 189.343Z" fill="#00E794"/>
</svg>
