<svg width="27" height="27" viewBox="0 0 27 27" fill="none" xmlns="http://www.w3.org/2000/svg">
<path d="M13.5014 25.0658C20.9573 25.0658 27 19.4561 27 12.5329C27 5.60969 20.9573 0 13.5014 0C6.04549 0 0.00273947 5.60969 0.00273947 12.5329C0.00273947 15.2504 0.936043 17.763 2.51791 19.8177C2.41773 21.2939 1.9168 22.6075 1.38951 23.6077C1.0995 24.162 0.804221 24.6079 0.588032 24.9092C0.477301 25.0598 0.392934 25.1743 0.329659 25.2526C0.298022 25.2888 0.27693 25.3189 0.261112 25.337L0.245293 25.3551C0.00273947 25.6322 -0.0658083 26.042 0.0660143 26.4035C0.197837 26.765 0.503665 27 0.846404 27C2.35973 27 3.8836 26.4637 5.14909 25.8371C6.35659 25.2345 7.3848 24.5175 8.01228 23.9933C9.68906 24.6862 11.5451 25.0719 13.5014 25.0719V25.0658ZM6.75205 10.6048C7.19956 10.6048 7.62874 10.8079 7.94518 11.1695C8.26161 11.5311 8.43938 12.0215 8.43938 12.5329C8.43938 13.0443 8.26161 13.5347 7.94518 13.8963C7.62874 14.2579 7.19956 14.4611 6.75205 14.4611C6.30455 14.4611 5.87537 14.2579 5.55893 13.8963C5.2425 13.5347 5.06473 13.0443 5.06473 12.5329C5.06473 12.0215 5.2425 11.5311 5.55893 11.1695C5.87537 10.8079 6.30455 10.6048 6.75205 10.6048ZM13.5014 10.6048C13.9489 10.6048 14.3781 10.8079 14.6945 11.1695C15.0109 11.5311 15.1887 12.0215 15.1887 12.5329C15.1887 13.0443 15.0109 13.5347 14.6945 13.8963C14.3781 14.2579 13.9489 14.4611 13.5014 14.4611C13.0539 14.4611 12.6247 14.2579 12.3082 13.8963C11.9918 13.5347 11.814 13.0443 11.814 12.5329C11.814 12.0215 11.9918 11.5311 12.3082 11.1695C12.6247 10.8079 13.0539 10.6048 13.5014 10.6048ZM18.5634 12.5329C18.5634 12.0215 18.7411 11.5311 19.0576 11.1695C19.374 10.8079 19.8032 10.6048 20.2507 10.6048C20.6982 10.6048 21.1274 10.8079 21.4438 11.1695C21.7602 11.5311 21.938 12.0215 21.938 12.5329C21.938 13.0443 21.7602 13.5347 21.4438 13.8963C21.1274 14.2579 20.6982 14.4611 20.2507 14.4611C19.8032 14.4611 19.374 14.2579 19.0576 13.8963C18.7411 13.5347 18.5634 13.0443 18.5634 12.5329Z" fill="#69DFB5"/>
</svg>
