<svg width="27" height="27" viewBox="0 0 27 27" fill="none" xmlns="http://www.w3.org/2000/svg">
<path d="M12.2607 0.272927C13.0465 -0.0909757 13.9535 -0.0909757 14.7393 0.272927L26.267 5.59962C26.7152 5.8053 27 6.25359 27 6.74934C27 7.24509 26.7152 7.69338 26.267 7.89906L14.7393 13.2258C13.9535 13.5897 13.0465 13.5897 12.2607 13.2258L0.733008 7.89906C0.284766 7.68811 0 7.23982 0 6.74934C0 6.25886 0.284766 5.8053 0.733008 5.59962L12.2607 0.272927ZM23.4615 11.0529L26.267 12.3503C26.7152 12.556 27 13.0042 27 13.5C27 13.9958 26.7152 14.444 26.267 14.6497L14.7393 19.9764C13.9535 20.3403 13.0465 20.3403 12.2607 19.9764L0.733008 14.6497C0.284766 14.4388 0 13.9905 0 13.5C0 13.0095 0.284766 12.556 0.733008 12.3503L3.53848 11.0529L11.5541 14.7552C12.7881 15.3248 14.2119 15.3248 15.4459 14.7552L23.4615 11.0529ZM15.4459 21.5059L23.4615 17.8035L26.267 19.1009C26.7152 19.3066 27 19.7549 27 20.2507C27 20.7464 26.7152 21.1947 26.267 21.4004L14.7393 26.7271C13.9535 27.091 13.0465 27.091 12.2607 26.7271L0.733008 21.4004C0.284766 21.1894 0 20.7411 0 20.2507C0 19.7602 0.284766 19.3066 0.733008 19.1009L3.53848 17.8035L11.5541 21.5059C12.7881 22.0754 14.2119 22.0754 15.4459 21.5059Z" fill="#00E794"/>
</svg>
