<svg width="242" height="237" viewBox="0 0 242 237" fill="none" xmlns="http://www.w3.org/2000/svg">
<rect width="241.49" height="236.924" rx="26" fill="black"/>
<path d="M122.123 60.4777L112.774 67.7969C111.281 68.9544 110.448 70.7728 110.489 72.6567L110.545 75.2155C110.587 77.1275 112.168 78.6406 114.08 78.5993C114.755 78.5848 115.425 78.3734 115.979 77.9676L127.561 69.8688C128.115 69.4911 128.785 69.2516 129.46 69.237L129.741 69.2309C131.484 69.1933 132.95 70.5963 132.988 72.3397C133.006 73.1832 132.687 74.0059 132.109 74.6092L126.636 80.3255C125.041 81.9916 123.072 83.2719 120.894 84.0504L113.497 86.6857C111.878 87.2552 110.843 88.7966 110.88 90.5118C110.903 91.5522 110.503 92.5736 109.789 93.3485L104.866 98.4904C103.106 100.329 102.174 102.768 102.23 105.299L102.256 106.508C102.357 111.119 106.263 114.777 110.846 114.678C113.939 114.611 116.769 112.806 118.087 110.02L119.162 107.718C119.807 106.354 121.194 105.452 122.712 105.419C123.978 105.392 125.171 105.957 125.953 106.953L130.67 112.955C131.278 113.758 132.244 114.187 133.256 114.166C135.618 114.115 137.11 111.579 135.995 109.493L135.672 108.853C134.644 106.906 135.576 104.494 137.67 103.746L143.587 101.621C145.709 100.872 147.099 98.8443 147.05 96.5949C146.987 93.6987 149.269 91.3145 152.166 91.2519L160.404 91.074C162.879 91.0206 164.948 93.0014 165.002 95.4758C165.056 97.9502 163.076 100.018 160.601 100.072L154.781 100.198C152.756 100.241 150.806 101.099 149.403 102.564L148.11 103.914C147.533 104.518 147.213 105.34 147.232 106.184C147.27 107.927 148.735 109.33 150.479 109.293L153.656 109.224C155.343 109.188 156.989 109.827 158.195 110.983L160.063 112.771C160.58 113.266 160.877 113.963 160.892 114.666C160.908 115.369 160.642 116.078 160.147 116.595L158.084 118.749C157.095 119.84 156.563 121.23 156.594 122.664C156.626 124.098 157.218 125.463 158.281 126.481L163.54 131.516C166.471 134.322 170.415 135.868 174.492 135.78L176.573 135.735C178.276 130.016 179.128 123.949 178.991 117.679C178.305 86.3552 153.114 61.2995 122.123 60.4777ZM172.381 146.01C171.324 145.301 170.05 144.906 168.7 144.936C167.013 144.972 165.367 144.332 164.161 143.177L160.338 139.462C158.125 137.343 155.203 136.197 152.138 136.263C149.41 136.322 146.717 135.395 144.598 133.669L137.006 127.419C133.684 124.706 129.488 123.249 125.186 123.342L119.309 123.469C115.766 123.545 112.302 124.661 109.393 126.693L101.801 132.005C96.8694 135.459 93.9837 141.148 94.1154 147.165L94.1351 148.065C94.2397 152.845 96.2239 157.388 99.6719 160.689L104.269 165.091C106.712 167.429 109.975 168.709 113.349 168.636L119.338 168.507C123.078 168.426 126.153 171.37 126.234 175.109C126.25 175.812 126.378 176.513 126.589 177.155C146.601 175.092 163.553 162.967 172.381 146.01ZM48.5211 120.496C48.1034 101.405 55.2867 82.9325 68.4908 69.1416C81.695 55.3507 99.8382 47.3714 118.929 46.9591C138.021 46.5469 156.496 53.7354 170.29 66.9433C184.085 80.1511 192.07 98.2965 192.488 117.387C192.905 136.479 185.722 154.951 172.518 168.742C159.314 182.533 141.17 190.512 122.079 190.925C102.988 191.337 84.513 184.148 70.7182 170.941C56.9233 157.733 48.9388 139.587 48.5211 120.496ZM100.232 75.6914C98.45 73.9857 95.582 74.0476 93.8768 75.8286L85.0757 85.0208C83.3705 86.8017 83.4333 89.6698 85.2148 91.3755C86.9962 93.0812 89.8643 93.0193 91.5695 91.2383L100.371 82.0461C102.076 80.2651 102.013 77.3971 100.232 75.6914Z" fill="#00E794"/>
</svg>
